<mxfile host="app.diagrams.net" modified="2020-07-25T22:13:49.118Z" agent="5.0 (Windows NT 10.0; Win64; x64) AppleWebKit/537.36 (KHTML, like Gecko) Chrome/80.0.3987.163 Safari/537.36" etag="OV-xCMar9ykcnVJHAalB" version="13.5.3" type="github">
  <diagram id="C5RBs43oDa-KdzZeNtuy" name="Page-1">
    <mxGraphModel dx="868" dy="433" grid="1" gridSize="10" guides="1" tooltips="1" connect="1" arrows="1" fold="1" page="1" pageScale="1" pageWidth="827" pageHeight="1169" math="0" shadow="0">
      <root>
        <mxCell id="WIyWlLk6GJQsqaUBKTNV-0" />
        <mxCell id="WIyWlLk6GJQsqaUBKTNV-1" parent="WIyWlLk6GJQsqaUBKTNV-0" />
        <mxCell id="-zQWObRJubREkpmwqvpv-5" value="" style="edgeStyle=orthogonalEdgeStyle;rounded=0;orthogonalLoop=1;jettySize=auto;html=1;exitX=0.5;exitY=1;exitDx=0;exitDy=0;fillColor=#f5f5f5;strokeColor=#666666;" edge="1" parent="WIyWlLk6GJQsqaUBKTNV-1" source="WIyWlLk6GJQsqaUBKTNV-3" target="-zQWObRJubREkpmwqvpv-0">
          <mxGeometry relative="1" as="geometry">
            <mxPoint x="250" y="100" as="sourcePoint" />
            <Array as="points">
              <mxPoint x="220" y="80" />
            </Array>
          </mxGeometry>
        </mxCell>
        <mxCell id="WIyWlLk6GJQsqaUBKTNV-3" value="&lt;font style=&quot;font-size: 14px&quot;&gt;Data Gathering&lt;/font&gt;" style="rounded=1;whiteSpace=wrap;html=1;fontSize=12;glass=0;strokeWidth=1;shadow=0;fillColor=#f5f5f5;strokeColor=#666666;fontColor=#333333;" parent="WIyWlLk6GJQsqaUBKTNV-1" vertex="1">
          <mxGeometry x="160" y="40" width="120" height="40" as="geometry" />
        </mxCell>
        <mxCell id="-zQWObRJubREkpmwqvpv-7" style="edgeStyle=orthogonalEdgeStyle;rounded=0;orthogonalLoop=1;jettySize=auto;html=1;exitX=0.5;exitY=1;exitDx=0;exitDy=0;entryX=0.5;entryY=0;entryDx=0;entryDy=0;fillColor=#f5f5f5;strokeColor=#666666;" edge="1" parent="WIyWlLk6GJQsqaUBKTNV-1" source="-zQWObRJubREkpmwqvpv-0" target="-zQWObRJubREkpmwqvpv-1">
          <mxGeometry relative="1" as="geometry" />
        </mxCell>
        <mxCell id="-zQWObRJubREkpmwqvpv-0" value="&lt;font style=&quot;font-size: 14px&quot;&gt;Data Selection&lt;/font&gt;" style="rounded=1;whiteSpace=wrap;html=1;fontSize=12;glass=0;strokeWidth=1;shadow=0;fillColor=#f5f5f5;strokeColor=#666666;fontColor=#333333;" vertex="1" parent="WIyWlLk6GJQsqaUBKTNV-1">
          <mxGeometry x="160" y="120" width="120" height="40" as="geometry" />
        </mxCell>
        <mxCell id="-zQWObRJubREkpmwqvpv-8" style="edgeStyle=orthogonalEdgeStyle;rounded=0;orthogonalLoop=1;jettySize=auto;html=1;exitX=0.5;exitY=1;exitDx=0;exitDy=0;fillColor=#f5f5f5;strokeColor=#666666;" edge="1" parent="WIyWlLk6GJQsqaUBKTNV-1" source="-zQWObRJubREkpmwqvpv-1">
          <mxGeometry relative="1" as="geometry">
            <mxPoint x="220" y="280" as="targetPoint" />
          </mxGeometry>
        </mxCell>
        <mxCell id="-zQWObRJubREkpmwqvpv-1" value="&lt;font style=&quot;font-size: 14px&quot;&gt;Data Preperation&lt;/font&gt;" style="rounded=1;whiteSpace=wrap;html=1;fontSize=12;glass=0;strokeWidth=1;shadow=0;fillColor=#f5f5f5;strokeColor=#666666;fontColor=#333333;" vertex="1" parent="WIyWlLk6GJQsqaUBKTNV-1">
          <mxGeometry x="160" y="200" width="120" height="40" as="geometry" />
        </mxCell>
        <mxCell id="-zQWObRJubREkpmwqvpv-2" value="&lt;font style=&quot;font-size: 14px&quot;&gt;Prediction&lt;/font&gt;" style="rounded=1;whiteSpace=wrap;html=1;fontSize=12;glass=0;strokeWidth=1;shadow=0;fillColor=#f5f5f5;strokeColor=#666666;fontColor=#333333;" vertex="1" parent="WIyWlLk6GJQsqaUBKTNV-1">
          <mxGeometry x="160" y="600" width="120" height="40" as="geometry" />
        </mxCell>
        <mxCell id="-zQWObRJubREkpmwqvpv-3" value="&lt;font style=&quot;font-size: 14px&quot;&gt;Model Selection&lt;/font&gt;" style="rounded=1;whiteSpace=wrap;html=1;fontSize=12;glass=0;strokeWidth=1;shadow=0;fillColor=#f5f5f5;strokeColor=#666666;fontColor=#333333;" vertex="1" parent="WIyWlLk6GJQsqaUBKTNV-1">
          <mxGeometry x="160" y="280" width="120" height="40" as="geometry" />
        </mxCell>
        <mxCell id="-zQWObRJubREkpmwqvpv-10" value="&lt;font style=&quot;font-size: 14px&quot;&gt;Parameter Tuning&lt;/font&gt;" style="rounded=1;whiteSpace=wrap;html=1;fontSize=12;glass=0;strokeWidth=1;shadow=0;fillColor=#f5f5f5;strokeColor=#666666;fontColor=#333333;" vertex="1" parent="WIyWlLk6GJQsqaUBKTNV-1">
          <mxGeometry x="160" y="520" width="120" height="40" as="geometry" />
        </mxCell>
        <mxCell id="-zQWObRJubREkpmwqvpv-11" value="&lt;font style=&quot;font-size: 14px&quot;&gt;Evaluation&lt;/font&gt;" style="rounded=1;whiteSpace=wrap;html=1;fontSize=12;glass=0;strokeWidth=1;shadow=0;fillColor=#f5f5f5;strokeColor=#666666;fontColor=#333333;" vertex="1" parent="WIyWlLk6GJQsqaUBKTNV-1">
          <mxGeometry x="160" y="440" width="120" height="40" as="geometry" />
        </mxCell>
        <mxCell id="-zQWObRJubREkpmwqvpv-12" value="&lt;font style=&quot;font-size: 14px&quot;&gt;Training&lt;/font&gt;" style="rounded=1;whiteSpace=wrap;html=1;fontSize=12;glass=0;strokeWidth=1;shadow=0;fillColor=#f5f5f5;strokeColor=#666666;fontColor=#333333;" vertex="1" parent="WIyWlLk6GJQsqaUBKTNV-1">
          <mxGeometry x="160" y="360" width="120" height="40" as="geometry" />
        </mxCell>
        <mxCell id="-zQWObRJubREkpmwqvpv-13" value="" style="endArrow=classic;html=1;shadow=0;labelBackgroundColor=none;strokeWidth=1;exitX=0.5;exitY=1;exitDx=0;exitDy=0;entryX=0.5;entryY=0;entryDx=0;entryDy=0;fillColor=#f5f5f5;strokeColor=#666666;" edge="1" parent="WIyWlLk6GJQsqaUBKTNV-1" source="-zQWObRJubREkpmwqvpv-11" target="-zQWObRJubREkpmwqvpv-10">
          <mxGeometry width="50" height="50" relative="1" as="geometry">
            <mxPoint x="330" y="510" as="sourcePoint" />
            <mxPoint x="380" y="460" as="targetPoint" />
          </mxGeometry>
        </mxCell>
        <mxCell id="-zQWObRJubREkpmwqvpv-14" value="" style="endArrow=classic;html=1;shadow=0;labelBackgroundColor=none;strokeWidth=1;entryX=0.5;entryY=0;entryDx=0;entryDy=0;fillColor=#f5f5f5;strokeColor=#666666;" edge="1" parent="WIyWlLk6GJQsqaUBKTNV-1" target="-zQWObRJubREkpmwqvpv-11">
          <mxGeometry width="50" height="50" relative="1" as="geometry">
            <mxPoint x="220" y="400" as="sourcePoint" />
            <mxPoint x="270" y="350" as="targetPoint" />
          </mxGeometry>
        </mxCell>
        <mxCell id="-zQWObRJubREkpmwqvpv-15" value="" style="endArrow=classic;html=1;shadow=0;labelBackgroundColor=none;strokeWidth=1;exitX=0.5;exitY=1;exitDx=0;exitDy=0;fillColor=#f5f5f5;strokeColor=#666666;" edge="1" parent="WIyWlLk6GJQsqaUBKTNV-1" source="-zQWObRJubREkpmwqvpv-3" target="-zQWObRJubREkpmwqvpv-12">
          <mxGeometry width="50" height="50" relative="1" as="geometry">
            <mxPoint x="390" y="550" as="sourcePoint" />
            <mxPoint x="440" y="500" as="targetPoint" />
          </mxGeometry>
        </mxCell>
        <mxCell id="-zQWObRJubREkpmwqvpv-16" value="" style="endArrow=classic;html=1;shadow=0;labelBackgroundColor=none;strokeWidth=1;exitX=0.5;exitY=1;exitDx=0;exitDy=0;entryX=0.5;entryY=0;entryDx=0;entryDy=0;fillColor=#f5f5f5;strokeColor=#666666;" edge="1" parent="WIyWlLk6GJQsqaUBKTNV-1" source="-zQWObRJubREkpmwqvpv-10" target="-zQWObRJubREkpmwqvpv-2">
          <mxGeometry width="50" height="50" relative="1" as="geometry">
            <mxPoint x="390" y="550" as="sourcePoint" />
            <mxPoint x="440" y="500" as="targetPoint" />
          </mxGeometry>
        </mxCell>
      </root>
    </mxGraphModel>
  </diagram>
</mxfile>
